<?xml version="1.0" encoding="utf-8"?>
<svg version = "1.1" id="Layer_1" xmlns="http://www.w3.org/2000/svg" xmlns:xlink="http://www.w3.org/1999/xlink" x="0px" y="0px" width="3456px" height="6912px" viewBox="0 0 3456 6912" enable-background="new 0 0 3456 6912" xml:space = "preserve">
<rect x="1" y="1" fill="none" stroke="#000000" stroke-miterlimit="10" width="1864" height="5"/>
<line fill="none" stroke="#0000FF" stroke-miterlimit="10" x1="4" y1="1" x2="9" y2="6"/>
<line fill="none" stroke="#0000FF" stroke-miterlimit="10" x1="9" y1="6" x2="14" y2="1"/>
<line fill="none" stroke="#0000FF" stroke-miterlimit="10" x1="18" y1="6" x2="23" y2="1"/>
<line fill="none" stroke="#0000FF" stroke-miterlimit="10" x1="23" y1="1" x2="28" y2="6"/>
<line fill="none" stroke="#0000FF" stroke-miterlimit="10" x1="36" y1="1" x2="41" y2="6"/>
<line fill="none" stroke="#0000FF" stroke-miterlimit="10" x1="41" y1="6" x2="46" y2="1"/>
<line fill="none" stroke="#0000FF" stroke-miterlimit="10" x1="53" y1="6" x2="58" y2="1"/>
<line fill="none" stroke="#0000FF" stroke-miterlimit="10" x1="58" y1="1" x2="63" y2="6"/>
<line fill="none" stroke="#0000FF" stroke-miterlimit="10" x1="75" y1="1" x2="80" y2="6"/>
<line fill="none" stroke="#0000FF" stroke-miterlimit="10" x1="80" y1="6" x2="85" y2="1"/>
<line fill="none" stroke="#0000FF" stroke-miterlimit="10" x1="96" y1="6" x2="101" y2="1"/>
<line fill="none" stroke="#0000FF" stroke-miterlimit="10" x1="101" y1="1" x2="106" y2="6"/>
<line fill="none" stroke="#0000FF" stroke-miterlimit="10" x1="121" y1="1" x2="126" y2="6"/>
<line fill="none" stroke="#0000FF" stroke-miterlimit="10" x1="126" y1="6" x2="131" y2="1"/>
<line fill="none" stroke="#0000FF" stroke-miterlimit="10" x1="146" y1="6" x2="151" y2="1"/>
<line fill="none" stroke="#0000FF" stroke-miterlimit="10" x1="151" y1="1" x2="156" y2="6"/>
<line fill="none" stroke="#0000FF" stroke-miterlimit="10" x1="175" y1="1" x2="180" y2="6"/>
<line fill="none" stroke="#0000FF" stroke-miterlimit="10" x1="180" y1="6" x2="185" y2="1"/>
<line fill="none" stroke="#0000FF" stroke-miterlimit="10" x1="204" y1="6" x2="209" y2="1"/>
<line fill="none" stroke="#0000FF" stroke-miterlimit="10" x1="209" y1="1" x2="214" y2="6"/>
<line fill="none" stroke="#0000FF" stroke-miterlimit="10" x1="237" y1="1" x2="242" y2="6"/>
<line fill="none" stroke="#0000FF" stroke-miterlimit="10" x1="242" y1="6" x2="247" y2="1"/>
<line fill="none" stroke="#0000FF" stroke-miterlimit="10" x1="270" y1="6" x2="275" y2="1"/>
<line fill="none" stroke="#0000FF" stroke-miterlimit="10" x1="275" y1="1" x2="280" y2="6"/>
<line fill="none" stroke="#0000FF" stroke-miterlimit="10" x1="306" y1="1" x2="311" y2="6"/>
<line fill="none" stroke="#0000FF" stroke-miterlimit="10" x1="311" y1="6" x2="316" y2="1"/>
<line fill="none" stroke="#0000FF" stroke-miterlimit="10" x1="350" y1="6" x2="355" y2="1"/>
<line fill="none" stroke="#0000FF" stroke-miterlimit="10" x1="355" y1="1" x2="360" y2="6"/>
<line fill="none" stroke="#0000FF" stroke-miterlimit="10" x1="393" y1="1" x2="398" y2="6"/>
<line fill="none" stroke="#0000FF" stroke-miterlimit="10" x1="398" y1="6" x2="403" y2="1"/>
<line fill="none" stroke="#0000FF" stroke-miterlimit="10" x1="461" y1="6" x2="466" y2="1"/>
<line fill="none" stroke="#0000FF" stroke-miterlimit="10" x1="466" y1="1" x2="471" y2="6"/>
<line fill="none" stroke="#0000FF" stroke-miterlimit="10" x1="534" y1="1" x2="539" y2="6"/>
<line fill="none" stroke="#0000FF" stroke-miterlimit="10" x1="539" y1="6" x2="544" y2="1"/>
<line fill="none" stroke="#0000FF" stroke-miterlimit="10" x1="645" y1="6" x2="650" y2="1"/>
<line fill="none" stroke="#0000FF" stroke-miterlimit="10" x1="650" y1="1" x2="655" y2="6"/>
<line fill="none" stroke="#0000FF" stroke-miterlimit="10" x1="668" y1="1" x2="673" y2="6"/>
<line fill="none" stroke="#0000FF" stroke-miterlimit="10" x1="673" y1="6" x2="678" y2="1"/>
<line fill="none" stroke="#0000FF" stroke-miterlimit="10" x1="687" y1="6" x2="692" y2="1"/>
<line fill="none" stroke="#0000FF" stroke-miterlimit="10" x1="692" y1="1" x2="697" y2="6"/>
<line fill="none" stroke="#0000FF" stroke-miterlimit="10" x1="718" y1="1" x2="723" y2="6"/>
<line fill="none" stroke="#0000FF" stroke-miterlimit="10" x1="723" y1="6" x2="728" y2="1"/>
<line fill="none" stroke="#0000FF" stroke-miterlimit="10" x1="744" y1="6" x2="749" y2="1"/>
<line fill="none" stroke="#0000FF" stroke-miterlimit="10" x1="749" y1="1" x2="754" y2="6"/>
<line fill="none" stroke="#0000FF" stroke-miterlimit="10" x1="783" y1="1" x2="788" y2="6"/>
<line fill="none" stroke="#0000FF" stroke-miterlimit="10" x1="788" y1="6" x2="793" y2="1"/>
<line fill="none" stroke="#0000FF" stroke-miterlimit="10" x1="817" y1="6" x2="822" y2="1"/>
<line fill="none" stroke="#0000FF" stroke-miterlimit="10" x1="822" y1="1" x2="827" y2="6"/>
<line fill="none" stroke="#0000FF" stroke-miterlimit="10" x1="863" y1="1" x2="868" y2="6"/>
<line fill="none" stroke="#0000FF" stroke-miterlimit="10" x1="868" y1="6" x2="873" y2="1"/>
<line fill="none" stroke="#0000FF" stroke-miterlimit="10" x1="904" y1="6" x2="909" y2="1"/>
<line fill="none" stroke="#0000FF" stroke-miterlimit="10" x1="909" y1="1" x2="914" y2="6"/>
<line fill="none" stroke="#0000FF" stroke-miterlimit="10" x1="964" y1="1" x2="969" y2="6"/>
<line fill="none" stroke="#0000FF" stroke-miterlimit="10" x1="969" y1="6" x2="974" y2="1"/>
<line fill="none" stroke="#0000FF" stroke-miterlimit="10" x1="995" y1="6" x2="1000" y2="1"/>
<line fill="none" stroke="#0000FF" stroke-miterlimit="10" x1="1000" y1="1" x2="1005" y2="6"/>
<line fill="none" stroke="#0000FF" stroke-miterlimit="10" x1="1030" y1="1" x2="1035" y2="6"/>
<line fill="none" stroke="#0000FF" stroke-miterlimit="10" x1="1035" y1="6" x2="1040" y2="1"/>
<line fill="none" stroke="#0000FF" stroke-miterlimit="10" x1="1076" y1="6" x2="1081" y2="1"/>
<line fill="none" stroke="#0000FF" stroke-miterlimit="10" x1="1081" y1="1" x2="1086" y2="6"/>
<line fill="none" stroke="#0000FF" stroke-miterlimit="10" x1="1126" y1="1" x2="1131" y2="6"/>
<line fill="none" stroke="#0000FF" stroke-miterlimit="10" x1="1131" y1="6" x2="1136" y2="1"/>
<line fill="none" stroke="#0000FF" stroke-miterlimit="10" x1="1187" y1="6" x2="1192" y2="1"/>
<line fill="none" stroke="#0000FF" stroke-miterlimit="10" x1="1192" y1="1" x2="1197" y2="6"/>
<line fill="none" stroke="#0000FF" stroke-miterlimit="10" x1="1258" y1="1" x2="1263" y2="6"/>
<line fill="none" stroke="#0000FF" stroke-miterlimit="10" x1="1263" y1="6" x2="1268" y2="1"/>
<line fill="none" stroke="#0000FF" stroke-miterlimit="10" x1="1277" y1="6" x2="1282" y2="1"/>
<line fill="none" stroke="#0000FF" stroke-miterlimit="10" x1="1282" y1="1" x2="1287" y2="6"/>
<line fill="none" stroke="#0000FF" stroke-miterlimit="10" x1="1301" y1="1" x2="1306" y2="6"/>
<line fill="none" stroke="#0000FF" stroke-miterlimit="10" x1="1306" y1="6" x2="1311" y2="1"/>
<line fill="none" stroke="#0000FF" stroke-miterlimit="10" x1="1328" y1="6" x2="1333" y2="1"/>
<line fill="none" stroke="#0000FF" stroke-miterlimit="10" x1="1333" y1="1" x2="1338" y2="6"/>
<line fill="none" stroke="#0000FF" stroke-miterlimit="10" x1="1358" y1="1" x2="1363" y2="6"/>
<line fill="none" stroke="#0000FF" stroke-miterlimit="10" x1="1363" y1="6" x2="1368" y2="1"/>
<line fill="none" stroke="#0000FF" stroke-miterlimit="10" x1="1393" y1="6" x2="1398" y2="1"/>
<line fill="none" stroke="#0000FF" stroke-miterlimit="10" x1="1398" y1="1" x2="1403" y2="6"/>
<line fill="none" stroke="#0000FF" stroke-miterlimit="10" x1="1432" y1="1" x2="1437" y2="6"/>
<line fill="none" stroke="#0000FF" stroke-miterlimit="10" x1="1437" y1="6" x2="1442" y2="1"/>
<line fill="none" stroke="#0000FF" stroke-miterlimit="10" x1="1474" y1="6" x2="1479" y2="1"/>
<line fill="none" stroke="#0000FF" stroke-miterlimit="10" x1="1479" y1="1" x2="1484" y2="6"/>
<line fill="none" stroke="#0000FF" stroke-miterlimit="10" x1="1520" y1="1" x2="1525" y2="6"/>
<line fill="none" stroke="#0000FF" stroke-miterlimit="10" x1="1525" y1="6" x2="1530" y2="1"/>
<line fill="none" stroke="#0000FF" stroke-miterlimit="10" x1="1583" y1="6" x2="1588" y2="1"/>
<line fill="none" stroke="#0000FF" stroke-miterlimit="10" x1="1588" y1="1" x2="1593" y2="6"/>
<line fill="none" stroke="#0000FF" stroke-miterlimit="10" x1="1629" y1="1" x2="1634" y2="6"/>
<line fill="none" stroke="#0000FF" stroke-miterlimit="10" x1="1634" y1="6" x2="1639" y2="1"/>
<line fill="none" stroke="#0000FF" stroke-miterlimit="10" x1="1693" y1="6" x2="1698" y2="1"/>
<line fill="none" stroke="#0000FF" stroke-miterlimit="10" x1="1698" y1="1" x2="1703" y2="6"/>
<line fill="none" stroke="#0000FF" stroke-miterlimit="10" x1="1769" y1="1" x2="1774" y2="6"/>
<line fill="none" stroke="#0000FF" stroke-miterlimit="10" x1="1774" y1="6" x2="1779" y2="1"/>
</svg>
