solid uploads-c5-af-25-85-c2-plotclock_SUP7
facet normal -7.9358149048531e-010 -1.27984054595012e-009 -1.0
outer loop
vertex 297.920288939027 32.5431742753018 -2.48972022070241e-009
vertex 282.420445752601 29.5431740345385 -2.83380287382109e-007
vertex 282.420445731687 32.5431740345384 3.76374835168809e-008
endloop
endfacet
facet normal -7.9358149048531e-010 -1.27984054595012e-009 -1.0
outer loop
vertex 282.420445752601 29.5431740345385 -2.83380287382109e-007
vertex 297.920288939027 32.5431742753018 -2.48972022070241e-009
vertex 282.920288939027 12.5431742753018 -2.48972022070241e-009
endloop
endfacet
facet normal -7.9358149048531e-010 -1.27984054595012e-009 -1.0
outer loop
vertex 282.920288939027 12.5431742753018 -2.48972022070241e-009
vertex 297.920288939027 32.5431742753018 -2.48972022070241e-009
vertex 297.920288939027 12.5431742753018 -2.48972022070241e-009
endloop
endfacet
facet normal -7.9358149048531e-010 -1.27984054595012e-009 -1.0
outer loop
vertex 279.420445752601 32.5431740345384 -1.22871404752581e-007
vertex 215.920288939027 29.5431742753017 -2.48972022070241e-009
vertex 215.920288939027 32.5431742753018 -2.48972022070241e-009
endloop
endfacet
facet normal -7.9358149048531e-010 -1.27984054595012e-009 -1.0
outer loop
vertex 215.920288939027 29.5431742753017 -2.48972022070241e-009
vertex 279.420445752601 32.5431740345384 -1.22871404752581e-007
vertex 249.420445811942 -18.4568257246982 -2.48983865929467e-009
endloop
endfacet
facet normal -7.9358149048531e-010 -1.27984054595012e-009 -1.0
outer loop
vertex 249.420445811942 -18.4568257246982 -2.48983865929467e-009
vertex 279.420445752601 32.5431740345384 -1.22871404752581e-007
vertex 252.420445811942 -18.4568257246982 -2.48983865929467e-009
endloop
endfacet
facet normal -7.9358149048531e-010 -1.27984054595012e-009 -1.0
outer loop
vertex 252.420445811942 -18.4568257246982 -2.48983865929467e-009
vertex 279.420445752601 32.5431740345384 -1.22871404752581e-007
vertex 252.420445811942 -21.4568257246982 -2.48983865929467e-009
endloop
endfacet
facet normal -7.9358149048531e-010 -1.27984054595012e-009 -1.0
outer loop
vertex 252.420445811942 -21.4568257246982 -2.48983865929467e-009
vertex 279.420445752601 32.5431740345384 -1.22871404752581e-007
vertex 279.420445752601 29.5431740345385 -2.83380298661975e-007
endloop
endfacet
facet normal -7.9358149048531e-010 -1.27984054595012e-009 -1.0
outer loop
vertex 252.420445811942 -21.4568257246982 -2.48983865929467e-009
vertex 279.420445752601 29.5431740345385 -2.83380298661975e-007
vertex 282.920288939027 -21.4568257246982 -2.48972022070241e-009
endloop
endfacet
facet normal -7.9358149048531e-010 -1.27984054595012e-009 -1.0
outer loop
vertex 282.920288939027 -21.4568257246982 -2.48972022070241e-009
vertex 279.420445752601 29.5431740345385 -2.83380298661975e-007
vertex 282.420445752601 29.5431740345385 -2.83380287382109e-007
endloop
endfacet
facet normal -7.9358149048531e-010 -1.27984054595012e-009 -1.0
outer loop
vertex 282.920288939027 -21.4568257246982 -2.48972022070241e-009
vertex 282.420445752601 29.5431740345385 -2.83380287382109e-007
vertex 282.920288939027 12.5431742753018 -2.48972022070241e-009
endloop
endfacet
facet normal -7.9358149048531e-010 -1.27984054595012e-009 -1.0
outer loop
vertex 215.920288939027 29.5431742753017 -2.48972022070241e-009
vertex 212.920288939027 -21.4568257246982 -2.48972022070241e-009
vertex 212.920288939027 29.5431742753017 -2.48972022070241e-009
endloop
endfacet
facet normal -7.9358149048531e-010 -1.27984054595012e-009 -1.0
outer loop
vertex 212.920288939027 -21.4568257246982 -2.48972022070241e-009
vertex 215.920288939027 29.5431742753017 -2.48972022070241e-009
vertex 249.420445811942 -21.4568257246982 -2.48983301936171e-009
endloop
endfacet
facet normal -7.9358149048531e-010 -1.27984054595012e-009 -1.0
outer loop
vertex 249.420445811942 -21.4568257246982 -2.48983301936171e-009
vertex 215.920288939027 29.5431742753017 -2.48972022070241e-009
vertex 249.420445811942 -18.4568257246982 -2.48983865929467e-009
endloop
endfacet
facet normal 7.9358149048531e-010 1.27984054595012e-009 1.0
outer loop
vertex 282.920288941408 -21.4568257208587 2.99999999751028
vertex 252.420445814322 -18.4568257208587 2.99999999751016
vertex 252.420445814322 -21.4568257208587 2.99999999751016
endloop
endfacet
facet normal 7.9358149048531e-010 1.27984054595012e-009 1.0
outer loop
vertex 252.420445814322 -18.4568257208587 2.99999999751016
vertex 282.920288941408 -21.4568257208587 2.99999999751028
vertex 279.420445754982 29.543174038378 2.9999997166197
endloop
endfacet
facet normal 7.9358149048531e-010 1.27984054595012e-009 1.0
outer loop
vertex 279.420445754982 29.543174038378 2.9999997166197
vertex 282.920288941408 -21.4568257208587 2.99999999751028
vertex 282.420445754982 29.543174038378 2.99999971661971
endloop
endfacet
facet normal 7.9358149048531e-010 1.27984054595012e-009 1.0
outer loop
vertex 282.420445754982 29.543174038378 2.99999971661971
vertex 297.920288941408 32.5431742791413 2.99999999751028
vertex 282.420445734067 32.543174038378 3.00000003763748
endloop
endfacet
facet normal 7.9358149048531e-010 1.27984054595012e-009 1.0
outer loop
vertex 297.920288941408 32.5431742791413 2.99999999751028
vertex 282.420445754982 29.543174038378 2.99999971661971
vertex 282.920288941408 12.5431742791413 2.99999999751028
endloop
endfacet
facet normal 7.9358149048531e-010 1.27984054595012e-009 1.0
outer loop
vertex 282.920288941408 12.5431742791413 2.99999999751028
vertex 282.420445754982 29.543174038378 2.99999971661971
vertex 282.920288941408 -21.4568257208587 2.99999999751028
endloop
endfacet
facet normal 7.9358149048531e-010 1.27984054595012e-009 1.0
outer loop
vertex 297.920288941408 32.5431742791413 2.99999999751028
vertex 282.920288941408 12.5431742791413 2.99999999751028
vertex 297.920288941408 12.5431742791413 2.99999999751028
endloop
endfacet
facet normal 7.9358149048531e-010 1.27984054595012e-009 1.0
outer loop
vertex 249.420445814322 -21.4568257208587 2.99999999751017
vertex 212.920288941408 29.5431742791413 2.99999999751028
vertex 212.920288941408 -21.4568257208587 2.99999999751028
endloop
endfacet
facet normal 7.9358149048531e-010 1.27984054595012e-009 1.0
outer loop
vertex 212.920288941408 29.5431742791413 2.99999999751028
vertex 249.420445814322 -21.4568257208587 2.99999999751017
vertex 215.920288941408 29.5431742791413 2.99999999751028
endloop
endfacet
facet normal 7.9358149048531e-010 1.27984054595012e-009 1.0
outer loop
vertex 215.920288941408 29.5431742791413 2.99999999751028
vertex 249.420445814322 -21.4568257208587 2.99999999751017
vertex 215.920288941408 32.5431742791413 2.99999999751028
endloop
endfacet
facet normal 7.9358149048531e-010 1.27984054595012e-009 1.0
outer loop
vertex 215.920288941408 32.5431742791413 2.99999999751028
vertex 249.420445814322 -21.4568257208587 2.99999999751017
vertex 249.420445814322 -18.4568257208587 2.99999999751016
endloop
endfacet
facet normal 7.9358149048531e-010 1.27984054595012e-009 1.0
outer loop
vertex 215.920288941408 32.5431742791413 2.99999999751028
vertex 249.420445814322 -18.4568257208587 2.99999999751016
vertex 279.420445754982 32.543174038378 2.9999998771286
endloop
endfacet
facet normal 7.9358149048531e-010 1.27984054595012e-009 1.0
outer loop
vertex 279.420445754982 32.543174038378 2.9999998771286
vertex 249.420445814322 -18.4568257208587 2.99999999751016
vertex 252.420445814322 -18.4568257208587 2.99999999751016
endloop
endfacet
facet normal 7.9358149048531e-010 1.27984054595012e-009 1.0
outer loop
vertex 279.420445754982 32.543174038378 2.9999998771286
vertex 252.420445814322 -18.4568257208587 2.99999999751016
vertex 279.420445754982 29.543174038378 2.9999997166197
endloop
endfacet
facet normal 3.79153904292025e-009 1.0 -1.27984054895901e-009
outer loop
vertex 215.920288939027 32.5431742753018 -2.48972022070241e-009
vertex 279.420445754982 32.543174038378 2.9999998771286
vertex 279.420445752601 32.5431740345384 -1.22871404752581e-007
endloop
endfacet
facet normal 3.79153904292025e-009 1.0 -1.27984054895901e-009
outer loop
vertex 279.420445754982 32.543174038378 2.9999998771286
vertex 215.920288939027 32.5431742753018 -2.48972022070241e-009
vertex 215.920288941408 32.5431742791413 2.99999999751028
endloop
endfacet
facet normal -1.0 0.0 7.9358149048531e-010
outer loop
vertex 215.920288941408 29.5431742791413 2.99999999751028
vertex 215.920288939027 32.5431742753018 -2.48972022070241e-009
vertex 215.920288939027 29.5431742753017 -2.48972022070241e-009
endloop
endfacet
facet normal -1.0 0.0 7.9358149048531e-010
outer loop
vertex 215.920288939027 32.5431742753018 -2.48972022070241e-009
vertex 215.920288941408 29.5431742791413 2.99999999751028
vertex 215.920288941408 32.5431742791413 2.99999999751028
endloop
endfacet
facet normal 0.0 1.0 -1.27984054595012e-009
outer loop
vertex 212.920288941408 29.5431742791413 2.99999999751028
vertex 215.920288939027 29.5431742753017 -2.48972022070241e-009
vertex 212.920288939027 29.5431742753017 -2.48972022070241e-009
endloop
endfacet
facet normal 0.0 1.0 -1.27984054595012e-009
outer loop
vertex 215.920288939027 29.5431742753017 -2.48972022070241e-009
vertex 212.920288941408 29.5431742791413 2.99999999751028
vertex 215.920288941408 29.5431742791413 2.99999999751028
endloop
endfacet
facet normal -1.0 0.0 7.9358149048531e-010
outer loop
vertex 212.920288941408 -21.4568257208587 2.99999999751028
vertex 212.920288939027 29.5431742753017 -2.48972022070241e-009
vertex 212.920288939027 -21.4568257246982 -2.48972022070241e-009
endloop
endfacet
facet normal -1.0 0.0 7.9358149048531e-010
outer loop
vertex 212.920288939027 29.5431742753017 -2.48972022070241e-009
vertex 212.920288941408 -21.4568257208587 2.99999999751028
vertex 212.920288941408 29.5431742791413 2.99999999751028
endloop
endfacet
facet normal -1.23614437421456e-015 -1.0 1.27984054595012e-009
outer loop
vertex 249.420445814322 -21.4568257208587 2.99999999751017
vertex 212.920288939027 -21.4568257246982 -2.48972022070241e-009
vertex 249.420445811942 -21.4568257246982 -2.48983301936171e-009
endloop
endfacet
facet normal -1.23614437421456e-015 -1.0 1.27984054595012e-009
outer loop
vertex 212.920288939027 -21.4568257246982 -2.48972022070241e-009
vertex 249.420445814322 -21.4568257208587 2.99999999751017
vertex 212.920288941408 -21.4568257208587 2.99999999751028
endloop
endfacet
facet normal 1.0 -1.49191546955932e-024 -7.9358149048531e-010
outer loop
vertex 249.420445811942 -18.4568257246982 -2.48983865929467e-009
vertex 249.420445814322 -21.4568257208587 2.99999999751017
vertex 249.420445811942 -21.4568257246982 -2.48983301936171e-009
endloop
endfacet
facet normal 1.0 -1.49191546955932e-024 -7.9358149048531e-010
outer loop
vertex 249.420445814322 -21.4568257208587 2.99999999751017
vertex 249.420445811942 -18.4568257246982 -2.48983865929467e-009
vertex 249.420445814322 -18.4568257208587 2.99999999751016
endloop
endfacet
facet normal 0.0 -1.0 1.27984054595012e-009
outer loop
vertex 252.420445814322 -18.4568257208587 2.99999999751016
vertex 249.420445811942 -18.4568257246982 -2.48983865929467e-009
vertex 252.420445811942 -18.4568257246982 -2.48983865929467e-009
endloop
endfacet
facet normal 0.0 -1.0 1.27984054595012e-009
outer loop
vertex 249.420445811942 -18.4568257246982 -2.48983865929467e-009
vertex 252.420445814322 -18.4568257208587 2.99999999751016
vertex 249.420445814322 -18.4568257208587 2.99999999751016
endloop
endfacet
facet normal -1.0 0.0 7.9358149048531e-010
outer loop
vertex 252.420445814322 -21.4568257208587 2.99999999751016
vertex 252.420445811942 -18.4568257246982 -2.48983865929467e-009
vertex 252.420445811942 -21.4568257246982 -2.48983865929467e-009
endloop
endfacet
facet normal -1.0 0.0 7.9358149048531e-010
outer loop
vertex 252.420445811942 -18.4568257246982 -2.48983865929467e-009
vertex 252.420445814322 -21.4568257208587 2.99999999751016
vertex 252.420445814322 -18.4568257208587 2.99999999751016
endloop
endfacet
facet normal 1.47933428316932e-015 -1.0 1.27984054595011e-009
outer loop
vertex 282.920288939027 -21.4568257246982 -2.48972022070241e-009
vertex 252.420445814322 -21.4568257208587 2.99999999751016
vertex 252.420445811942 -21.4568257246982 -2.48983865929467e-009
endloop
endfacet
facet normal 1.47933428316932e-015 -1.0 1.27984054595011e-009
outer loop
vertex 252.420445814322 -21.4568257208587 2.99999999751016
vertex 282.920288939027 -21.4568257246982 -2.48972022070241e-009
vertex 282.920288941408 -21.4568257208587 2.99999999751028
endloop
endfacet
facet normal 1.0 0.0 -7.9358149048531e-010
outer loop
vertex 282.920288939027 12.5431742753018 -2.48972022070241e-009
vertex 282.920288941408 -21.4568257208587 2.99999999751028
vertex 282.920288939027 -21.4568257246982 -2.48972022070241e-009
endloop
endfacet
facet normal 1.0 0.0 -7.9358149048531e-010
outer loop
vertex 282.920288941408 -21.4568257208587 2.99999999751028
vertex 282.920288939027 12.5431742753018 -2.48972022070241e-009
vertex 282.920288941408 12.5431742791413 2.99999999751028
endloop
endfacet
facet normal 0.0 -1.0 1.27984054595012e-009
outer loop
vertex 297.920288941408 12.5431742791413 2.99999999751028
vertex 282.920288939027 12.5431742753018 -2.48972022070241e-009
vertex 297.920288939027 12.5431742753018 -2.48972022070241e-009
endloop
endfacet
facet normal 0.0 -1.0 1.27984054595012e-009
outer loop
vertex 282.920288939027 12.5431742753018 -2.48972022070241e-009
vertex 297.920288941408 12.5431742791413 2.99999999751028
vertex 282.920288941408 12.5431742791413 2.99999999751028
endloop
endfacet
facet normal 1.0 0.0 -7.9358149048531e-010
outer loop
vertex 297.920288939027 32.5431742753018 -2.48972022070241e-009
vertex 297.920288941408 12.5431742791413 2.99999999751028
vertex 297.920288939027 12.5431742753018 -2.48972022070241e-009
endloop
endfacet
facet normal 1.0 0.0 -7.9358149048531e-010
outer loop
vertex 297.920288941408 12.5431742791413 2.99999999751028
vertex 297.920288939027 32.5431742753018 -2.48972022070241e-009
vertex 297.920288941408 32.5431742791413 2.99999999751028
endloop
endfacet
facet normal -1.55332748063948e-008 1.0 -1.2798405336232e-009
outer loop
vertex 282.420445731687 32.5431740345384 3.76374835168809e-008
vertex 297.920288941408 32.5431742791413 2.99999999751028
vertex 297.920288939027 32.5431742753018 -2.48972022070241e-009
endloop
endfacet
facet normal -1.55332748063948e-008 1.0 -1.2798405336232e-009
outer loop
vertex 297.920288941408 32.5431742791413 2.99999999751028
vertex 282.420445731687 32.5431740345384 3.76374835168809e-008
vertex 282.420445734067 32.543174038378 3.00000003763748
endloop
endfacet
facet normal -1.0 -6.97143850405602e-009 7.93581499407639e-010
outer loop
vertex 282.420445754982 29.543174038378 2.99999971661971
vertex 282.420445731687 32.5431740345384 3.76374835168809e-008
vertex 282.420445752601 29.5431740345385 -2.83380287382109e-007
endloop
endfacet
facet normal -1.0 -6.97143850405602e-009 7.93581499407639e-010
outer loop
vertex 282.420445731687 32.5431740345384 3.76374835168809e-008
vertex 282.420445754982 29.543174038378 2.99999971661971
vertex 282.420445734067 32.543174038378 3.00000003763748
endloop
endfacet
facet normal 4.81214325678011e-024 1.0 -1.27984054595012e-009
outer loop
vertex 279.420445754982 29.543174038378 2.9999997166197
vertex 282.420445752601 29.5431740345385 -2.83380287382109e-007
vertex 279.420445752601 29.5431740345385 -2.83380298661975e-007
endloop
endfacet
facet normal 4.81214325678011e-024 1.0 -1.27984054595012e-009
outer loop
vertex 282.420445752601 29.5431740345385 -2.83380287382109e-007
vertex 279.420445754982 29.543174038378 2.9999997166197
vertex 282.420445754982 29.543174038378 2.99999971661971
endloop
endfacet
facet normal 1.0 4.24589624215887e-017 -7.9358149048531e-010
outer loop
vertex 279.420445752601 32.5431740345384 -1.22871404752581e-007
vertex 279.420445754982 29.543174038378 2.9999997166197
vertex 279.420445752601 29.5431740345385 -2.83380298661975e-007
endloop
endfacet
facet normal 1.0 4.24589624215887e-017 -7.9358149048531e-010
outer loop
vertex 279.420445754982 29.543174038378 2.9999997166197
vertex 279.420445752601 32.5431740345384 -1.22871404752581e-007
vertex 279.420445754982 32.543174038378 2.9999998771286
endloop
endfacet
endsolid uploads-c5-af-25-85-c2-plotclock_SUP7
