solid zip
facet normal -3.32307037551035e-17 2.82961536605158e-18 -1.0
outer loop
vertex 3.89428338571563 32.0569399993658 7.04991620636974e-16
vertex 3.74094960401644 5.3922542964045 0.0
vertex 3.74094960401644 30.8922542964045 7.04991620636974e-16
endloop
endfacet
facet normal -3.32307037551035e-17 2.82961536605158e-18 -1.0
outer loop
vertex 3.74094960401644 5.3922542964045 0.0
vertex 3.89428338571563 32.0569399993658 7.04991620636974e-16
vertex 6.24094960401644 7.3922542964045 0.0
endloop
endfacet
facet normal -3.32307037551035e-17 2.82961536605158e-18 -1.0
outer loop
vertex 3.74094960401644 5.3922542964045 0.0
vertex 6.24094960401644 7.3922542964045 0.0
vertex 7.99094960401644 5.3922542964045 0.0
endloop
endfacet
facet normal -3.32307037551035e-17 2.82961536605158e-18 -1.0
outer loop
vertex 6.24094960401644 7.3922542964045 0.0
vertex 3.89428338571563 32.0569399993658 7.04991620636974e-16
vertex 4.34383528698647 33.1422542964045 3.52495810318487e-16
endloop
endfacet
facet normal -3.32307037551035e-17 2.82961536605158e-18 -1.0
outer loop
vertex 6.24094960401644 7.3922542964045 0.0
vertex 4.34383528698647 33.1422542964045 3.52495810318487e-16
vertex 5.05896908867698 34.074234811744 3.52495810318487e-16
endloop
endfacet
facet normal -3.32307037551035e-17 2.82961536605158e-18 -1.0
outer loop
vertex 6.24094960401644 7.3922542964045 0.0
vertex 5.05896908867698 34.074234811744 3.52495810318487e-16
vertex 5.99094960401644 34.7893686134345 0.0
endloop
endfacet
facet normal -3.32307037551035e-17 2.82961536605158e-18 -1.0
outer loop
vertex 6.24094960401644 7.3922542964045 0.0
vertex 5.99094960401644 34.7893686134345 0.0
vertex 6.24094960401644 15.3922542964045 0.0
endloop
endfacet
facet normal -3.32307037551035e-17 2.82961536605158e-18 -1.0
outer loop
vertex 7.99094960401644 5.3922542964045 0.0
vertex 6.24094960401644 7.3922542964045 0.0
vertex 7.99094960401644 7.3922542964045 0.0
endloop
endfacet
facet normal -3.32307037551035e-17 2.82961536605158e-18 -1.0
outer loop
vertex 7.07626390105509 35.2389205147053 0.0
vertex 6.24094960401644 15.3922542964045 0.0
vertex 5.99094960401644 34.7893686134345 0.0
endloop
endfacet
facet normal -3.32307037551035e-17 2.82961536605158e-18 -1.0
outer loop
vertex 6.24094960401644 15.3922542964045 0.0
vertex 7.07626390105509 35.2389205147053 0.0
vertex 10.2409496040164 15.3922542964045 0.0
endloop
endfacet
facet normal -3.32307037551035e-17 2.82961536605158e-18 -1.0
outer loop
vertex 10.2409496040164 15.3922542964045 0.0
vertex 7.07626390105509 35.2389205147053 0.0
vertex 8.24094960401644 35.3922542964045 3.52495810318487e-16
endloop
endfacet
facet normal -3.32307037551035e-17 2.82961536605158e-18 -1.0
outer loop
vertex 10.2409496040164 15.3922542964045 0.0
vertex 8.24094960401644 35.3922542964045 3.52495810318487e-16
vertex 9.40563530697779 35.2389205147053 -3.52495810318487e-16
endloop
endfacet
facet normal -3.32307037551035e-17 2.82961536605158e-18 -1.0
outer loop
vertex 10.2409496040164 15.3922542964045 0.0
vertex 9.40563530697779 35.2389205147053 -3.52495810318487e-16
vertex 10.4909496040164 34.7893686134345 -3.52495810318487e-16
endloop
endfacet
facet normal -3.32307037551035e-17 2.82961536605158e-18 -1.0
outer loop
vertex 10.2409496040164 15.3922542964045 0.0
vertex 10.4909496040164 34.7893686134345 -3.52495810318487e-16
vertex 10.2409496040164 7.3922542964045 0.0
endloop
endfacet
facet normal -3.32307037551035e-17 2.82961536605158e-18 -1.0
outer loop
vertex 10.2409496040164 7.3922542964045 0.0
vertex 8.49094960401644 5.3922542964045 0.0
vertex 8.49094960401644 7.3922542964045 0.0
endloop
endfacet
facet normal -3.32307037551035e-17 2.82961536605158e-18 -1.0
outer loop
vertex 8.49094960401644 5.3922542964045 0.0
vertex 10.2409496040164 7.3922542964045 0.0
vertex 12.7409496040164 5.3922542964045 -2.36123774785956e-16
endloop
endfacet
facet normal -3.32307037551035e-17 2.82961536605158e-18 -1.0
outer loop
vertex 12.7409496040164 5.3922542964045 -2.36123774785956e-16
vertex 10.2409496040164 7.3922542964045 0.0
vertex 10.4909496040164 34.7893686134345 -3.52495810318487e-16
endloop
endfacet
facet normal -3.32307037551035e-17 2.82961536605158e-18 -1.0
outer loop
vertex 12.7409496040164 5.3922542964045 -2.36123774785956e-16
vertex 10.4909496040164 34.7893686134345 -3.52495810318487e-16
vertex 11.4229301193559 34.074234811744 -3.52495810318487e-16
endloop
endfacet
facet normal -3.32307037551035e-17 2.82961536605158e-18 -1.0
outer loop
vertex 12.7409496040164 5.3922542964045 -2.36123774785956e-16
vertex 11.4229301193559 34.074234811744 -3.52495810318487e-16
vertex 12.1380639210464 33.1422542964045 0.0
endloop
endfacet
facet normal -3.32307037551035e-17 2.82961536605158e-18 -1.0
outer loop
vertex 12.7409496040164 5.3922542964045 -2.36123774785956e-16
vertex 12.1380639210464 33.1422542964045 0.0
vertex 12.5876158223173 32.0569399993658 0.0
endloop
endfacet
facet normal -3.32307037551035e-17 2.82961536605158e-18 -1.0
outer loop
vertex 12.7409496040164 5.3922542964045 -2.36123774785956e-16
vertex 12.5876158223173 32.0569399993658 0.0
vertex 12.7409496040164 30.8922542964045 3.52495810318487e-16
endloop
endfacet
facet normal 1.0 -1.15698705456144e-16 3.63768855582637e-16
outer loop
vertex 12.7409496040164 30.8922542964045 3.52495810318487e-16
vertex 12.7409496040164 5.3922542964045 1.5
vertex 12.7409496040164 5.3922542964045 -2.36123774785956e-16
endloop
endfacet
facet normal 1.0 -1.15698705456144e-16 3.63768855582637e-16
outer loop
vertex 12.7409496040164 5.3922542964045 1.5
vertex 12.7409496040164 30.8922542964045 3.52495810318487e-16
vertex 12.7409496040164 17.3922542964045 1.5
endloop
endfacet
facet normal 1.0 -1.15698705456144e-16 3.63768855582637e-16
outer loop
vertex 12.7409496040164 17.3922542964045 1.5
vertex 12.7409496040164 30.8922542964045 3.52495810318487e-16
vertex 12.7409496040164 17.3922542964045 2.0
endloop
endfacet
facet normal 1.0 -1.15698705456144e-16 3.63768855582637e-16
outer loop
vertex 12.7409496040164 17.3922542964045 2.0
vertex 12.7409496040164 30.8922542964045 3.52495810318487e-16
vertex 12.7409496040164 30.8922542964045 2.0
endloop
endfacet
facet normal -1.0 -1.73548058184216e-16 5.45653283373955e-16
outer loop
vertex 3.74094960401644 30.8922542964045 2.0
vertex 3.74094960401644 17.3922542964045 1.5
vertex 3.74094960401644 17.3922542964045 2.0
endloop
endfacet
facet normal -1.0 -1.73548058184216e-16 5.45653283373955e-16
outer loop
vertex 3.74094960401644 17.3922542964045 1.5
vertex 3.74094960401644 5.3922542964045 0.0
vertex 3.74094960401644 5.3922542964045 1.5
endloop
endfacet
facet normal -1.0 -1.73548058184216e-16 5.45653283373955e-16
outer loop
vertex 3.74094960401644 5.3922542964045 0.0
vertex 3.74094960401644 17.3922542964045 1.5
vertex 3.74094960401644 30.8922542964045 7.04991620636974e-16
endloop
endfacet
facet normal -1.0 -1.73548058184216e-16 5.45653283373955e-16
outer loop
vertex 3.74094960401644 30.8922542964045 7.04991620636974e-16
vertex 3.74094960401644 17.3922542964045 1.5
vertex 3.74094960401644 30.8922542964045 2.0
endloop
endfacet
facet normal 0.0 -1.0 0.0
outer loop
vertex 7.99094960401644 5.3922542964045 1.5
vertex 3.74094960401644 5.3922542964045 0.0
vertex 7.99094960401644 5.3922542964045 0.0
endloop
endfacet
facet normal 0.0 -1.0 0.0
outer loop
vertex 3.74094960401644 5.3922542964045 0.0
vertex 7.99094960401644 5.3922542964045 1.5
vertex 3.74094960401644 5.3922542964045 1.5
endloop
endfacet
facet normal -0.0 -0.0 1.0
outer loop
vertex 3.74094960401644 5.3922542964045 1.5
vertex 6.24094960401644 7.3922542964045 1.5
vertex 3.74094960401644 17.3922542964045 1.5
endloop
endfacet
facet normal -0.0 -0.0 1.0
outer loop
vertex 6.24094960401644 7.3922542964045 1.5
vertex 3.74094960401644 5.3922542964045 1.5
vertex 7.99094960401644 5.3922542964045 1.5
endloop
endfacet
facet normal -0.0 -0.0 1.0
outer loop
vertex 6.24094960401644 7.3922542964045 1.5
vertex 7.99094960401644 5.3922542964045 1.5
vertex 7.99094960401644 7.3922542964045 1.5
endloop
endfacet
facet normal -0.0 -0.0 1.0
outer loop
vertex 12.7409496040164 5.3922542964045 1.5
vertex 8.49094960401644 7.3922542964045 1.5
vertex 8.49094960401644 5.3922542964045 1.5
endloop
endfacet
facet normal -0.0 -0.0 1.0
outer loop
vertex 8.49094960401644 7.3922542964045 1.5
vertex 12.7409496040164 5.3922542964045 1.5
vertex 10.2409496040164 7.3922542964045 1.5
endloop
endfacet
facet normal -0.0 -0.0 1.0
outer loop
vertex 10.2409496040164 7.3922542964045 1.5
vertex 12.7409496040164 5.3922542964045 1.5
vertex 10.2409496040164 15.3922542964045 1.5
endloop
endfacet
facet normal -0.0 -0.0 1.0
outer loop
vertex 3.74094960401644 17.3922542964045 1.5
vertex 6.24094960401644 15.3922542964045 1.5
vertex 12.7409496040164 17.3922542964045 1.5
endloop
endfacet
facet normal -0.0 -0.0 1.0
outer loop
vertex 6.24094960401644 15.3922542964045 1.5
vertex 3.74094960401644 17.3922542964045 1.5
vertex 6.24094960401644 7.3922542964045 1.5
endloop
endfacet
facet normal -0.0 -0.0 1.0
outer loop
vertex 12.7409496040164 17.3922542964045 1.5
vertex 6.24094960401644 15.3922542964045 1.5
vertex 10.2409496040164 15.3922542964045 1.5
endloop
endfacet
facet normal -0.0 -0.0 1.0
outer loop
vertex 12.7409496040164 17.3922542964045 1.5
vertex 10.2409496040164 15.3922542964045 1.5
vertex 12.7409496040164 5.3922542964045 1.5
endloop
endfacet
facet normal -1.0 0.0 0.0
outer loop
vertex 8.49094960401644 7.3922542964045 1.5
vertex 8.49094960401644 5.3922542964045 0.0
vertex 8.49094960401644 5.3922542964045 1.5
endloop
endfacet
facet normal -1.0 0.0 0.0
outer loop
vertex 8.49094960401644 5.3922542964045 0.0
vertex 8.49094960401644 7.3922542964045 1.5
vertex 8.49094960401644 7.3922542964045 0.0
endloop
endfacet
facet normal -0.0 1.0 -0.0
outer loop
vertex 8.49094960401644 7.3922542964045 1.5
vertex 10.2409496040164 7.3922542964045 0.0
vertex 8.49094960401644 7.3922542964045 0.0
endloop
endfacet
facet normal -0.0 1.0 -0.0
outer loop
vertex 10.2409496040164 7.3922542964045 0.0
vertex 8.49094960401644 7.3922542964045 1.5
vertex 10.2409496040164 7.3922542964045 1.5
endloop
endfacet
facet normal -1.0 0.0 -0.0
outer loop
vertex 10.2409496040164 15.3922542964045 1.5
vertex 10.2409496040164 7.3922542964045 0.0
vertex 10.2409496040164 7.3922542964045 1.5
endloop
endfacet
facet normal -1.0 0.0 -0.0
outer loop
vertex 10.2409496040164 7.3922542964045 0.0
vertex 10.2409496040164 15.3922542964045 1.5
vertex 10.2409496040164 15.3922542964045 0.0
endloop
endfacet
facet normal -0.0 -1.0 -0.0
outer loop
vertex 10.2409496040164 15.3922542964045 1.5
vertex 6.24094960401644 15.3922542964045 0.0
vertex 10.2409496040164 15.3922542964045 0.0
endloop
endfacet
facet normal -0.0 -1.0 -0.0
outer loop
vertex 6.24094960401644 15.3922542964045 0.0
vertex 10.2409496040164 15.3922542964045 1.5
vertex 6.24094960401644 15.3922542964045 1.5
endloop
endfacet
facet normal 1.0 0.0 0.0
outer loop
vertex 6.24094960401644 15.3922542964045 0.0
vertex 6.24094960401644 7.3922542964045 1.5
vertex 6.24094960401644 7.3922542964045 0.0
endloop
endfacet
facet normal 1.0 0.0 0.0
outer loop
vertex 6.24094960401644 7.3922542964045 1.5
vertex 6.24094960401644 15.3922542964045 0.0
vertex 6.24094960401644 15.3922542964045 1.5
endloop
endfacet
facet normal -0.0 1.0 -0.0
outer loop
vertex 6.24094960401644 7.3922542964045 1.5
vertex 7.99094960401644 7.3922542964045 0.0
vertex 6.24094960401644 7.3922542964045 0.0
endloop
endfacet
facet normal -0.0 1.0 -0.0
outer loop
vertex 7.99094960401644 7.3922542964045 0.0
vertex 6.24094960401644 7.3922542964045 1.5
vertex 7.99094960401644 7.3922542964045 1.5
endloop
endfacet
facet normal 1.0 -0.0 -0.0
outer loop
vertex 7.99094960401644 7.3922542964045 0.0
vertex 7.99094960401644 5.3922542964045 1.5
vertex 7.99094960401644 5.3922542964045 0.0
endloop
endfacet
facet normal 1.0 -0.0 -0.0
outer loop
vertex 7.99094960401644 5.3922542964045 1.5
vertex 7.99094960401644 7.3922542964045 0.0
vertex 7.99094960401644 7.3922542964045 1.5
endloop
endfacet
facet normal 0.0 -1.0 0.0
outer loop
vertex 12.7409496040164 5.3922542964045 1.5
vertex 8.49094960401644 5.3922542964045 0.0
vertex 12.7409496040164 5.3922542964045 -2.36123774785956e-16
endloop
endfacet
facet normal 0.0 -1.0 0.0
outer loop
vertex 8.49094960401644 5.3922542964045 0.0
vertex 12.7409496040164 5.3922542964045 1.5
vertex 8.49094960401644 5.3922542964045 1.5
endloop
endfacet
facet normal 0.0 -1.0 1.22394378582808e-16
outer loop
vertex 12.7409496040164 17.3922542964045 2.0
vertex 3.74094960401644 17.3922542964045 1.5
vertex 12.7409496040164 17.3922542964045 1.5
endloop
endfacet
facet normal 0.0 -1.0 1.22394378582808e-16
outer loop
vertex 3.74094960401644 17.3922542964045 1.5
vertex 12.7409496040164 17.3922542964045 2.0
vertex 3.74094960401644 17.3922542964045 2.0
endloop
endfacet
facet normal 1.45614070286757e-17 1.52834349741404e-16 1.0
outer loop
vertex 3.74094960401644 17.3922542964045 2.0
vertex 3.89428338571563 32.0569399993658 2.0
vertex 3.74094960401644 30.8922542964045 2.0
endloop
endfacet
facet normal 1.45614070286757e-17 1.52834349741404e-16 1.0
outer loop
vertex 3.89428338571563 32.0569399993658 2.0
vertex 3.74094960401644 17.3922542964045 2.0
vertex 12.7409496040164 17.3922542964045 2.0
endloop
endfacet
facet normal 1.45614070286757e-17 1.52834349741404e-16 1.0
outer loop
vertex 3.89428338571563 32.0569399993658 2.0
vertex 12.7409496040164 17.3922542964045 2.0
vertex 4.34383528698647 33.1422542964045 2.0
endloop
endfacet
facet normal 1.45614070286757e-17 1.52834349741404e-16 1.0
outer loop
vertex 4.34383528698647 33.1422542964045 2.0
vertex 12.7409496040164 17.3922542964045 2.0
vertex 5.05896908867698 34.074234811744 2.0
endloop
endfacet
facet normal 1.45614070286757e-17 1.52834349741404e-16 1.0
outer loop
vertex 5.05896908867698 34.074234811744 2.0
vertex 12.7409496040164 17.3922542964045 2.0
vertex 5.99094960401644 34.7893686134345 2.0
endloop
endfacet
facet normal 1.45614070286757e-17 1.52834349741404e-16 1.0
outer loop
vertex 5.99094960401644 34.7893686134345 2.0
vertex 12.7409496040164 17.3922542964045 2.0
vertex 7.07626390105509 35.2389205147053 2.0
endloop
endfacet
facet normal 1.45614070286757e-17 1.52834349741404e-16 1.0
outer loop
vertex 7.07626390105509 35.2389205147053 2.0
vertex 12.7409496040164 17.3922542964045 2.0
vertex 8.24094960401644 35.3922542964045 2.0
endloop
endfacet
facet normal 1.45614070286757e-17 1.52834349741404e-16 1.0
outer loop
vertex 8.24094960401644 35.3922542964045 2.0
vertex 12.7409496040164 17.3922542964045 2.0
vertex 9.40563530697779 35.2389205147053 2.0
endloop
endfacet
facet normal 1.45614070286757e-17 1.52834349741404e-16 1.0
outer loop
vertex 9.40563530697779 35.2389205147053 2.0
vertex 12.7409496040164 17.3922542964045 2.0
vertex 10.4909496040164 34.7893686134345 2.0
endloop
endfacet
facet normal 1.45614070286757e-17 1.52834349741404e-16 1.0
outer loop
vertex 10.4909496040164 34.7893686134345 2.0
vertex 12.7409496040164 17.3922542964045 2.0
vertex 11.4229301193559 34.074234811744 2.0
endloop
endfacet
facet normal 1.45614070286757e-17 1.52834349741404e-16 1.0
outer loop
vertex 11.4229301193559 34.074234811744 2.0
vertex 12.7409496040164 17.3922542964045 2.0
vertex 12.1380639210464 33.1422542964045 2.0
endloop
endfacet
facet normal 1.45614070286757e-17 1.52834349741404e-16 1.0
outer loop
vertex 12.1380639210464 33.1422542964045 2.0
vertex 12.7409496040164 17.3922542964045 2.0
vertex 12.5876158223173 32.0569399993658 2.0
endloop
endfacet
facet normal 1.45614070286757e-17 1.52834349741404e-16 1.0
outer loop
vertex 12.5876158223173 32.0569399993658 2.0
vertex 12.7409496040164 17.3922542964045 2.0
vertex 12.7409496040164 30.8922542964045 2.0
endloop
endfacet
facet normal 0.130526192220054 0.99144486137381 -5.34818335626313e-18
outer loop
vertex 8.24094960401644 35.3922542964045 3.52495810318487e-16
vertex 9.40563530697779 35.2389205147053 2.0
vertex 9.40563530697779 35.2389205147053 -3.52495810318487e-16
endloop
endfacet
facet normal 0.25881904510252 0.965925826289069 -1.00861653919967e-17
outer loop
vertex 9.40563530697779 35.2389205147053 2.0
vertex 8.24094960401644 35.3922542964045 3.52495810318487e-16
vertex 8.24094960401644 35.3922542964045 2.0
endloop
endfacet
facet normal 0.25881904510252 0.965925826289069 -1.00861653919967e-17
outer loop
vertex 9.40563530697779 35.2389205147053 2.0
vertex 10.4909496040164 34.7893686134345 -3.52495810318487e-16
vertex 9.40563530697779 35.2389205147053 -3.52495810318487e-16
endloop
endfacet
facet normal 0.499999999999999 0.866025403784439 -1.01789212745895e-17
outer loop
vertex 10.4909496040164 34.7893686134345 -3.52495810318487e-16
vertex 9.40563530697779 35.2389205147053 2.0
vertex 10.4909496040164 34.7893686134345 2.0
endloop
endfacet
facet normal 0.499999999999999 0.866025403784439 -1.01789212745895e-17
outer loop
vertex 10.4909496040164 34.7893686134345 2.0
vertex 11.4229301193559 34.074234811744 -3.52495810318487e-16
vertex 10.4909496040164 34.7893686134345 -3.52495810318487e-16
endloop
endfacet
facet normal 0.707106781186548 0.707106781186547 -7.9063890817332e-19
outer loop
vertex 11.4229301193559 34.074234811744 -3.52495810318487e-16
vertex 10.4909496040164 34.7893686134345 2.0
vertex 11.4229301193559 34.074234811744 2.0
endloop
endfacet
facet normal 0.707106781186548 0.707106781186547 -7.9063890817332e-19
outer loop
vertex 11.4229301193559 34.074234811744 -3.52495810318487e-16
vertex 12.1380639210464 33.1422542964045 2.0
vertex 12.1380639210464 33.1422542964045 0.0
endloop
endfacet
facet normal 0.866025403784439 0.5 8.65152419324213e-18
outer loop
vertex 12.1380639210464 33.1422542964045 2.0
vertex 11.4229301193559 34.074234811744 -3.52495810318487e-16
vertex 11.4229301193559 34.074234811744 2.0
endloop
endfacet
facet normal 0.866025403784438 0.5 8.65152419324213e-18
outer loop
vertex 12.1380639210464 33.1422542964045 0.0
vertex 12.5876158223173 32.0569399993658 2.0
vertex 12.5876158223173 32.0569399993658 0.0
endloop
endfacet
facet normal 0.965925826289068 0.258819045102521 7.00123951762917e-18
outer loop
vertex 12.5876158223173 32.0569399993658 2.0
vertex 12.1380639210464 33.1422542964045 0.0
vertex 12.1380639210464 33.1422542964045 2.0
endloop
endfacet
facet normal 0.965925826289068 0.258819045102521 7.00123951762917e-18
outer loop
vertex 12.5876158223173 32.0569399993658 0.0
vertex 12.7409496040164 30.8922542964045 2.0
vertex 12.7409496040164 30.8922542964045 3.52495810318487e-16
endloop
endfacet
facet normal 0.99144486137381 0.130526192220051 6.92025754278548e-19
outer loop
vertex 12.7409496040164 30.8922542964045 2.0
vertex 12.5876158223173 32.0569399993658 0.0
vertex 12.5876158223173 32.0569399993658 2.0
endloop
endfacet
facet normal -0.965925826289068 0.258819045102521 1.05405820223608e-17
outer loop
vertex 3.89428338571563 32.0569399993658 2.0
vertex 3.74094960401644 30.8922542964045 7.04991620636974e-16
vertex 3.74094960401644 30.8922542964045 2.0
endloop
endfacet
facet normal -0.99144486137381 0.130526192220051 0.0
outer loop
vertex 3.74094960401644 30.8922542964045 7.04991620636974e-16
vertex 3.89428338571563 32.0569399993658 2.0
vertex 3.89428338571563 32.0569399993658 7.04991620636974e-16
endloop
endfacet
facet normal -0.866025403784439 0.499999999999999 1.33260896324477e-17
outer loop
vertex 4.34383528698647 33.1422542964045 2.0
vertex 3.89428338571563 32.0569399993658 7.04991620636974e-16
vertex 3.89428338571563 32.0569399993658 2.0
endloop
endfacet
facet normal -0.965925826289068 0.258819045102521 1.05405820223608e-17
outer loop
vertex 3.89428338571563 32.0569399993658 7.04991620636974e-16
vertex 4.34383528698647 33.1422542964045 2.0
vertex 4.34383528698647 33.1422542964045 3.52495810318487e-16
endloop
endfacet
facet normal -0.707106781186548 0.707106781186547 -2.37388693245896e-18
outer loop
vertex 5.05896908867698 34.074234811744 2.0
vertex 4.34383528698647 33.1422542964045 3.52495810318487e-16
vertex 4.34383528698647 33.1422542964045 2.0
endloop
endfacet
facet normal -0.866025403784439 0.499999999999999 1.33260896324477e-17
outer loop
vertex 4.34383528698647 33.1422542964045 3.52495810318487e-16
vertex 5.05896908867698 34.074234811744 2.0
vertex 5.05896908867698 34.074234811744 3.52495810318487e-16
endloop
endfacet
facet normal -0.707106781186548 0.707106781186547 -2.37388693245896e-18
outer loop
vertex 5.05896908867698 34.074234811744 3.52495810318487e-16
vertex 5.99094960401644 34.7893686134345 2.0
vertex 5.99094960401644 34.7893686134345 0.0
endloop
endfacet
facet normal -0.5 0.866025403784439 -1.79120870259522e-17
outer loop
vertex 5.99094960401644 34.7893686134345 2.0
vertex 5.05896908867698 34.074234811744 3.52495810318487e-16
vertex 5.05896908867698 34.074234811744 2.0
endloop
endfacet
facet normal -0.5 0.866025403784439 -1.79120870259522e-17
outer loop
vertex 5.99094960401644 34.7893686134345 2.0
vertex 7.07626390105509 35.2389205147053 0.0
vertex 5.99094960401644 34.7893686134345 0.0
endloop
endfacet
facet normal -0.258819045102522 0.965925826289068 -1.33221381229829e-17
outer loop
vertex 7.07626390105509 35.2389205147053 0.0
vertex 5.99094960401644 34.7893686134345 2.0
vertex 7.07626390105509 35.2389205147053 2.0
endloop
endfacet
facet normal -0.258819045102522 0.965925826289068 -1.33221381229829e-17
outer loop
vertex 7.07626390105509 35.2389205147053 2.0
vertex 8.24094960401644 35.3922542964045 3.52495810318487e-16
vertex 7.07626390105509 35.2389205147053 0.0
endloop
endfacet
facet normal -0.130526192220054 0.99144486137381 -1.12914790637968e-18
outer loop
vertex 8.24094960401644 35.3922542964045 3.52495810318487e-16
vertex 7.07626390105509 35.2389205147053 2.0
vertex 8.24094960401644 35.3922542964045 2.0
endloop
endfacet
endsolid zip
