# Blender v2.93.5 OBJ File: ''
# www.blender.org
mtllib two_planes.mtl
o Plane
v 0.000000 0.001320 1.079598
v 2.000000 0.001320 1.079598
v 0.000000 0.001320 -0.920402
v 2.000000 0.001320 -0.920402
vt 0.000000 0.000000
vt 1.000000 0.000000
vt 1.000000 1.000000
vt 0.000000 1.000000
vn 0.0000 1.0000 0.0000
usemtl None
s off
f 1/1/1 2/2/1 4/3/1 3/4/1
o Plane.001
v -1.019493 0.001320 1.079598
v 0.980507 0.001320 1.079598
v -1.019493 0.001320 -0.920402
v 0.980507 0.001320 -0.920402
vt 0.000000 0.000000
vt 1.000000 0.000000
vt 1.000000 1.000000
vt 0.000000 1.000000
vn 0.0000 1.0000 0.0000
usemtl None
s off
f 5/5/2 6/6/2 8/7/2 7/8/2
